# xmcd
#
# Track frame offsets:
#	150
#	8048
#	26846
#	40670
#	57963
#	73978
#	86927
#	98007
#	117571
#	133555
#	142321
#	158444
#	170862
#	188908
#	206885
#	223559
#	232433
#	251756
#	266714
#	280261
#	294679
#
# Disc length: 3965 seconds
#
# Revision: 0
# Processed by: cddbd v1.5.2PL0 Copyright (c) Steve Scherf et al.
# Submitted via: audiograbber 1.83.01
#
DISCID=570f7b15
DTITLE=Willie Nelson - The Complete Atlantic Sessions CD2
DYEAR=2006
DGENRE=Country
TTITLE0=Phases And Stages (Theme) \\ Washing The Dishes
TTITLE1=Phases And Stages (Theme) \\ Walkin'
TTITLE2=Pretend It Never Happened
TTITLE3=Sister's Coming Home \\ Down At The Corner Beer Joint
TTITLE4=(How Will I Know) I'm Falling In Love Again
TTITLE5=Bloody Mary Morning
TTITLE6=Phases And Stages (Theme) \\ No Love Around
TTITLE7=I Still Can't Believe You're Gone
TTITLE8=It's Not Suppose To Be That Way
TTITLE9=Heaven and Hell
TTITLE10=Phases and Stages (Theme), Pick Up The Tempo, Phases and Stages (Theme
TTITLE10=)
TTITLE11=Phases and Stages (Theme)\\Washing The Dishes (Bonus, Prev. Unrel., Alt.
TTITLE11=Version)
TTITLE12=Sister's Coming Home\\Down At The Corner Beer Joint (Bonus, Prev. Unre
TTITLE12=l., Alt....
TTITLE13=Phases and Stages (Theme)\\(How Will I Know) I'm Falling In Love Again (
TTITLE13=Bonus)
TTITLE14=Bloody Mary Morning (Bonus, Prev. Unrel., Alt. Version)
TTITLE15=No Love Around (Bonus, Prev. Unrel., Alt. Version
TTITLE16=I Still Can't Believe You're Gone (Bonus, Prev. Unrel., Alt. Version)
TTITLE17=It Not Suppose To Be That Way (Bonus, Prev. Unrel., Alt. Version)
TTITLE18=Heaven And Hell (Bonus, Prev. Unrel., Alt. Version\\Duet Vocal)
TTITLE19=Phases and Stages (Theme)\\Pick Up The Tempo (Bonus)
TTITLE20=Phases and Stages (Theme) (Bonus, Prev. Unrel., Alt. Version)
EXTD=
EXTT0=
EXTT1=
EXTT2=
EXTT3=
EXTT4=
EXTT5=
EXTT6=
EXTT7=
EXTT8=
EXTT9=
EXTT10=
EXTT11=
EXTT12=
EXTT13=
EXTT14=
EXTT15=
EXTT16=
EXTT17=
EXTT18=
EXTT19=
EXTT20=
PLAYORDER=
